# xmcd
#
# Track frame offsets:
# 150
# 15099
# 40306
# 66947
# 82860
# 107624
# 134788
# 146209
# 164083
# 187443
# 215652
# 234627
#
# Disc length: 3479 seconds
#
#
# Revision: 0
# Processed by: cddbd v1.5.2PL0 Copyright (c) Steve Scherf et al.
# Submitted via: Nero 7, 11, 10, 0 
#
DISCID=b60d950c
DTITLE=Sweet Daddy Cool Breeze - Blowin' Down The House
DYEAR=2001
DGENRE=Blues
TTITLE0=Chicken Boogie
TTITLE1=Don't Bite The Hand That Feeds You
TTITLE2=Cross Cut Saw
TTITLE3=He Loved The Blues
TTITLE4=Evil
TTITLE5=Somebody
TTITLE6=Teach Me How To Love You
TTITLE7=Hook
TTITLE8=Boogie Man
TTITLE9=Party All Alone
TTITLE10=Sweet Tooth Mama
TTITLE11=Cross My Heart
EXTD=
EXTT0=Chicken Boogie
EXTT1=Don't Bite The Hand That Feeds You
EXTT2=Cross Cut Saw
EXTT3=He Loved The Blues
EXTT4=Evil
EXTT5=Somebody
EXTT6=Teach Me How To Love You
EXTT7=Hook
EXTT8=Boogie Man
EXTT9=Party All Alone
EXTT10=Sweet Tooth Mama
EXTT11=Cross My Heart
PLAYORDER=
